# xmcd CD database file
#
# Track frame offsets:
#	150
#	13587
#	28849
#	42323
#	55764
#	69660
#	85981
#	97486
#	113659
#	127186
#
# Disc length: 1907 seconds
#
# Revision: 0
# Processed by: cddbd v1.5.2PL0 Copyright (c) Steve Scherf et al.
# Submitted via: CDex 1.70beta2
#
DISCID=8d07710a
DTITLE=Mickey Gilley - Urban Cowboy
DYEAR=1900
DGENRE=Country
TTITLE0=A Room Full Of Roses
TTITLE1=Put Your Dreams Away
TTITLE2=True Love Ways
TTITLE3=I Overlooked An Orchid
TTITLE4=You Don't Know Me
TTITLE5=Stand By Me
TTITLE6=That's All That Matters
TTITLE7=A Headache Tomorrow [Or A Heartache Tonight)
TTITLE8=Don't The Girls All Get Prettier At Closing Time
TTITLE9=Lonely Nights 
EXTD=
EXTT0=
EXTT1=
EXTT2=
EXTT3=
EXTT4=
EXTT5=
EXTT6=
EXTT7=
EXTT8=
EXTT9=
PLAYORDER=
